<svg xmlns="http://www.w3.org/2000/svg" viewBox="0 0 538.1 177.32"><defs><style>.cls-1{fill:#ff3605;}.cls-2{fill:#bc8507;}.cls-3{fill:#020202;}.cls-4{fill:#020101;}.cls-5{fill:#030202;}.cls-6{fill:#030303;}.cls-7{fill:#ff3706;}</style></defs><title>Recurso 1</title><g id="Capa_2" data-name="Capa 2"><g id="Capa_1-2" data-name="Capa 1"><path class="cls-1" d="M179.83,176.2l-4.46-.11-7.07-.16-2.45-.05-8.83-.17-7.6-.18-7.78-.17-7.7-.18c-1.31,0-2.62-.1-3.93-.11a1.5,1.5,0,0,1-1.31-2.13,1.54,1.54,0,0,1,.9-.78l3-1.13,18.07-6.72a3.65,3.65,0,0,0,.64-.28,1.38,1.38,0,0,0,.56-1.88,4.45,4.45,0,0,0-.33-.51c-5.07-7.17-10.37-14.16-16-20.87-2.86-3.38-5.81-6.69-8.88-9.88a161.53,161.53,0,0,0-20.55-18.3A121,121,0,0,0,88,101.42,81.09,81.09,0,0,0,72.4,95.5q-3.63-.94-7.35-1.53a73.29,73.29,0,0,0-7.56-.75,62.77,62.77,0,0,0-6.72,0c-2,.12-4.07.31-6.09.62a64.34,64.34,0,0,0-9.86,2.28,76.29,76.29,0,0,0-23.27,12.14,78.1,78.1,0,0,0-6.15,5.19c-.17.16-.34.32-.52.46a1.36,1.36,0,0,1-1.78,0,1.41,1.41,0,0,1-.47-1.79,8.52,8.52,0,0,1,.48-.83,88.41,88.41,0,0,1,9.5-12.53A86.72,86.72,0,0,1,31.66,83.12a77.62,77.62,0,0,1,20.18-8.57,86.54,86.54,0,0,1,9.57-2c2.27-.36,4.56-.61,6.85-.79,3.06-.23,6.12-.34,9.18-.27,1.71,0,3.43.15,5.14.27,1.34.09,2.68.22,4,.37s3,.36,4.42.59q4.18.63,8.32,1.56,5.92,1.33,11.71,3.17A165.72,165.72,0,0,1,132.42,86a219.63,219.63,0,0,1,25.21,14.3,288.14,288.14,0,0,1,24.9,18.22c3.19,2.6,6.31,5.27,9.47,7.91.13.11.26.23.4.33a1.37,1.37,0,0,0,2.06-.31c.49-.69.94-1.4,1.41-2.11.26-.39.53-.77.77-1.17a1.54,1.54,0,0,1,2.62,0c1.19,2,2.44,4,3.67,6.06l24.4,40,3.32,5.45a5.15,5.15,0,0,1,.33.61,1.45,1.45,0,0,1-1.24,2,14.81,14.81,0,0,1-1.49,0l-3.32-.08-8-.18-5.69-.12-6.37-.16-3.06-.06-6.91-.18-5.94-.12-5.25-.13-3.06-.05h-.87Z"/><path class="cls-2" d="M65.45,19.31c-.19-.14-.38-.28-.57-.4a4.54,4.54,0,0,1-2.13-3.54,9.73,9.73,0,0,1,1.1-5.84,21,21,0,0,1,2.56-3.65A38.74,38.74,0,0,1,72,.64a2.39,2.39,0,0,1,3.14-.1,36,36,0,0,1,7,6.58A17,17,0,0,1,84,9.91a9.6,9.6,0,0,1,1,5.52,4.4,4.4,0,0,1-2,3.36,1.53,1.53,0,0,0-.49.49,4.31,4.31,0,0,0,.49-.11,20.55,20.55,0,0,1,4.55-.79,32.18,32.18,0,0,1,4.81.05,44.34,44.34,0,0,1,6,.93l1.87.44a2.3,2.3,0,0,1,.58.18,1,1,0,0,1,.43,1.4,4.46,4.46,0,0,1-.35.5A16.19,16.19,0,0,1,94.73,27a21.93,21.93,0,0,1-9.45,2.22,9.51,9.51,0,0,1-4-.68s-.06,0-.16,0A1.77,1.77,0,0,0,81,29c0,3.18,0,6.35-.06,9.53A4.26,4.26,0,0,0,81,39c.22.08.43.18.64.25,5.45,1.7,10.9,3.39,16.42,4.82,3.78,1,7.59,1.85,11.43,2.51,2.39.41,4.78.74,7.19,1,1.83.17,3.66.32,5.5.35h.91l2.42-5.45a.75.75,0,0,0,0-.26.9.9,0,0,0-.25-.08,9.53,9.53,0,0,1-3.3-.77A29.53,29.53,0,0,1,107.4,29.37a5.08,5.08,0,0,1-.42-.76.76.76,0,0,1,.73-1.09h.17a43,43,0,0,1,13.21,2.72,26,26,0,0,1,6.64,3.83l.34.25c.17-.1.08-.19,0-.29-.33-.51-.69-1-1-1.54a5.87,5.87,0,0,1-.44-4.5A10.38,10.38,0,0,1,128,25.23a4,4,0,0,1,.77-.83,9.28,9.28,0,0,1,3.87-1.95,19.92,19.92,0,0,1,3.44-.57,62.18,62.18,0,0,1,8.74,0l1.49,0a1.3,1.3,0,0,1,1.22.83,1,1,0,0,1,0,.85l-.53,1.2q-7,15.94-13.93,31.88c-.1.24-.22.46-.35.73a11.41,11.41,0,0,0-2.58-.58,6.4,6.4,0,0,0-2,.16,3,3,0,0,0-.57.2,2.32,2.32,0,0,0-1.37,3.09,5.6,5.6,0,0,0,2,2.63c.29.24.62.44.91.68a1.11,1.11,0,0,1,.37,1.54q-1,2.34-2,4.66c-.28.64-.49.75-1.15.58-1-.24-1.91-.52-2.87-.77-4.63-1.19-9.28-2.26-14-3.07-2.72-.47-5.45-.94-8.19-1.33-2.16-.32-4.34-.55-6.51-.77-2.38-.24-4.76-.46-7.14-.63-1.87-.13-3.73-.17-5.6-.27-3.76-.2-7.52-.16-11.28-.1-2.16,0-4.31.17-6.47.27-1.31.06-2.62.13-3.93.24-1.65.13-3.31.29-5,.45-1.19.12-2.38.25-3.56.4-1.54.18-3.07.36-4.6.59-2,.3-4,.64-6,1-3.1.53-6.18,1.14-9.24,1.87s-6,1.51-9,2.26a3.37,3.37,0,0,1-.34.09c-.6.12-.79,0-1.05-.5-.78-1.66-1.55-3.33-2.34-5a1,1,0,0,1,.24-1.27,4.68,4.68,0,0,1,.61-.49,6.13,6.13,0,0,0,1.53-1.68,3.68,3.68,0,0,0,.52-1.28,2.25,2.25,0,0,0-1-2.44,4,4,0,0,0-2-.65,8.74,8.74,0,0,0-2.6.2c-.81.19-.81.18-1.18-.59-.92-2-1.83-3.9-2.76-5.85L.52,25.34c-.14-.29-.29-.57-.41-.87A1.27,1.27,0,0,1,1,22.72a4.22,4.22,0,0,1,.61-.07c2.88-.14,5.77-.31,8.66-.22A23.51,23.51,0,0,1,14.7,23a10.18,10.18,0,0,1,4.19,1.87,4.43,4.43,0,0,1,1.27,1.42,20.23,20.23,0,0,1,1,2.05,5.58,5.58,0,0,1-.38,4.89c-.42.73-1,1.39-1.43,2.09,0,0,.1,0,.14,0a26.52,26.52,0,0,1,9.6-5.42,38.33,38.33,0,0,1,7.5-1.65l3.3-.34a3,3,0,0,1,.52,0,.66.66,0,0,1,.68.88,2.67,2.67,0,0,1-.32.71,26.74,26.74,0,0,1-3,4.27,29.11,29.11,0,0,1-11.62,8,10,10,0,0,1-3,.71,1.69,1.69,0,0,0-.39.08,1.43,1.43,0,0,0,.05.32c.84,1.77,1.69,3.53,2.55,5.32a15.17,15.17,0,0,0,2.43,0c1.22-.09,2.44-.17,3.66-.3,1.51-.16,3-.33,4.51-.56,2.91-.44,5.8-1,8.67-1.65,4.15-.93,8.25-2,12.32-3.27,3.29-1,6.56-2,9.84-3.07l.61-.22c-.08-3.47-.16-6.93-.3-10.44l-.42.11c-.45.13-.89.3-1.34.4a14.1,14.1,0,0,1-4,.2,23.33,23.33,0,0,1-7.66-2,17.12,17.12,0,0,1-6.45-5c-.18-.22-.35-.46-.54-.69a.94.94,0,0,1,.42-1.45,2.3,2.3,0,0,1,.58-.18,55.57,55.57,0,0,1,7.13-1.32,32.29,32.29,0,0,1,6.37-.12,16.3,16.3,0,0,1,3.6.65c.22.07.45.11.67.17Zm8.69,37.12c.41,0,.82,0,1.22-.06A8.35,8.35,0,0,0,79,55.17a3.88,3.88,0,0,0,1.16-1.05,2.52,2.52,0,0,0,.24-2.72,4.58,4.58,0,0,0-.72-1,5.28,5.28,0,0,0-1.81-1.21,9.63,9.63,0,0,0-5.14-.64,7.47,7.47,0,0,0-3,1,4.64,4.64,0,0,0-1.51,1.31,2.64,2.64,0,0,0,.25,3.64,5.17,5.17,0,0,0,1.73,1.16A9.26,9.26,0,0,0,74.14,56.43Zm31,2.29c.41,0,.82,0,1.22-.07a5.23,5.23,0,0,0,2.45-.86,2.42,2.42,0,0,0,1-2.66,3.48,3.48,0,0,0-.61-1.34,6.1,6.1,0,0,0-1.7-1.62A10,10,0,0,0,102,50.5a6.86,6.86,0,0,0-2.65.46,4.14,4.14,0,0,0-1.72,1.16,2.34,2.34,0,0,0-.48,2.36A4.08,4.08,0,0,0,98,55.9a7,7,0,0,0,2,1.52A11.11,11.11,0,0,0,105.14,58.72Zm-61.94.2c.75-.09,1.51-.14,2.25-.29a9.74,9.74,0,0,0,3.69-1.49,5.27,5.27,0,0,0,1.59-1.6,2.65,2.65,0,0,0-.83-3.87,5.41,5.41,0,0,0-2.44-.88,10.08,10.08,0,0,0-4.89.62,8.41,8.41,0,0,0-3.12,2,4.34,4.34,0,0,0-1,1.54,2.41,2.41,0,0,0,.82,2.82,4.51,4.51,0,0,0,1.3.69A9.05,9.05,0,0,0,43.2,58.92Z"/><path class="cls-3" d="M165.81,38.62V67.5a3.22,3.22,0,0,0,1.54,2.87,5.3,5.3,0,0,0,2.44.89c.55.06,1.1.08,1.65.11a11.32,11.32,0,0,1,2.09.22,2.19,2.19,0,0,1,1.75,1.63,2.4,2.4,0,0,1-.68,2.48,3.89,3.89,0,0,1-2.19,1,9.83,9.83,0,0,1-4.57-.43c-.67-.21-1.32-.47-2-.7s-1.43-.49-2.15-.71a7,7,0,0,0-4.22,0c-.83.27-1.66.54-2.48.84a17.06,17.06,0,0,1-3.1.88,8.28,8.28,0,0,1-3.64-.2,4,4,0,0,1-.66-.24,2.5,2.5,0,0,1-1.45-3,1.46,1.46,0,0,1,1.09-1.25,12.32,12.32,0,0,1,1.8-.31,17,17,0,0,1,1.75,0,6.42,6.42,0,0,0,1.89-.33,3.92,3.92,0,0,0,1.41-.85,2.29,2.29,0,0,0,.75-1.62c0-.24,0-.47,0-.7q0-28.4,0-56.79a10.5,10.5,0,0,0-.09-1.48,3.34,3.34,0,0,0-1.94-2.63,7.33,7.33,0,0,0-2.6-.7l-1.65-.16a4.34,4.34,0,0,1-1.65-.54,1.89,1.89,0,0,1-1-1.8A1.84,1.84,0,0,1,149,2.27a5.52,5.52,0,0,1,2.11-.49A27.6,27.6,0,0,1,156,2c1.15.15,2.31.28,3.47.39a15.8,15.8,0,0,0,3.57-.21c2.38-.3,4.74-.64,7.11-.93a37.12,37.12,0,0,1,7-.19,26.57,26.57,0,0,1,10.66,2.79,20.35,20.35,0,0,1,6.95,5.75,16.59,16.59,0,0,1,3.25,8,18.71,18.71,0,0,1,0,5.49A12.26,12.26,0,0,1,194.62,30a19.65,19.65,0,0,1-3.8,2.93,43.61,43.61,0,0,1-6.6,3.19,9.06,9.06,0,0,0-1.19.54c-.7.39-.79.73-.44,1.43a5.88,5.88,0,0,0,.35.6c3,4.37,5.65,8.91,8.35,13.45,3,5,6,10.13,9,15.19.4.68.84,1.33,1.24,2a2.35,2.35,0,0,0,1.15,1c.61.27,1.24.51,1.86.75a11.16,11.16,0,0,1,2.15,1,2.49,2.49,0,0,1,1.2,1.84,1.8,1.8,0,0,1-.49,1.61,5,5,0,0,1-.67.55c-.22.15-.45.27-.68.4a5,5,0,0,1-3.72.47,14.38,14.38,0,0,1-2.4-.8,28,28,0,0,1-4.57-2.55,7.63,7.63,0,0,1-2.21-2.21c-1.52-2.38-3.08-4.74-4.57-7.15-3.75-6.1-7.47-12.23-11.21-18.35-.73-1.19-1.47-2.38-2.23-3.55a20.14,20.14,0,0,0-2.9-3.61,9.7,9.7,0,0,0-2.92-2l-.47-.23a.89.89,0,0,1-.44-.62,3.82,3.82,0,0,1,0-1.39,1.83,1.83,0,0,1,1.33-1.48,3.83,3.83,0,0,1,1.9-.11,17.08,17.08,0,0,0,4.1.26,12.78,12.78,0,0,0,6-1.81A12,12,0,0,0,187.51,23a18.23,18.23,0,0,0,.34-3.22,10.73,10.73,0,0,0-1.11-5.07,17.12,17.12,0,0,0-4.36-5.63A14,14,0,0,0,175.54,6a20.33,20.33,0,0,0-5.67-.2,6.57,6.57,0,0,0-2.1.54A2.83,2.83,0,0,0,166,8.71c-.06.61-.13,1.22-.14,1.82,0,4.9,0,9.8,0,14.7Z"/><path class="cls-4" d="M325.78,76.69h-20A24.74,24.74,0,0,1,302,76.5a14.44,14.44,0,0,1-1.71-.36,3.9,3.9,0,0,1-1-.48,1.86,1.86,0,0,1-.9-2,1.77,1.77,0,0,1,1.45-1.55,9.1,9.1,0,0,1,1.47-.19l2.44-.19a5.12,5.12,0,0,0,.68-.14A3.19,3.19,0,0,0,307,69a11.69,11.69,0,0,0,.21-1.56,8.42,8.42,0,0,0,0-.87V19.07c0-2.63,0-5.25-.19-7.87-.05-.78-.21-1.56-.33-2.33a2.46,2.46,0,0,0-.19-.58,2.27,2.27,0,0,0-1.61-1.47,11.94,11.94,0,0,0-2.85-.34,17.75,17.75,0,0,1-1.92-.16,3.13,3.13,0,0,1-1.57-.71,2,2,0,0,1-.27-3,2.8,2.8,0,0,1,1.85-1,7.31,7.31,0,0,1,1.05-.06H340a7.43,7.43,0,0,1,2,.19A2.36,2.36,0,0,1,343.53,3a8.57,8.57,0,0,1,.79,2.76,46.18,46.18,0,0,1,.26,5.76,3.52,3.52,0,0,1-.07.79,1.4,1.4,0,0,1-1.38,1.23,2.47,2.47,0,0,1-2.5-1.26,18.3,18.3,0,0,1-.85-1.72c-.24-.53-.43-1.09-.67-1.61a11.17,11.17,0,0,0-.68-1.22,3.19,3.19,0,0,0-2.5-1.41c-.23,0-.47,0-.7,0H321.49a15.18,15.18,0,0,0-2.52.18,2.8,2.8,0,0,0-2.67,2.66,8.15,8.15,0,0,0-.11,1.3q0,5.39,0,10.76a14.9,14.9,0,0,0,.31,3.13c.05.23.11.45.18.67a2.69,2.69,0,0,0,1.82,1.85,9.25,9.25,0,0,0,2.5.39c.29,0,.58,0,.87,0h12.51a8.72,8.72,0,0,0,1.14-.07A2.63,2.63,0,0,0,337.44,26a5.59,5.59,0,0,0,.92-2.7,2.42,2.42,0,0,1,2.16-2.44,2.29,2.29,0,0,1,2.59,2.32,18.52,18.52,0,0,1-.24,2.78c-.1.81-.22,1.62-.33,2.42a14.21,14.21,0,0,0,.15,4.27c.14.95.35,1.89.5,2.84a6.32,6.32,0,0,1,.09,1.3,2.54,2.54,0,0,1-2.68,2.33,2.05,2.05,0,0,1-1.26-.54,3,3,0,0,1-.95-1.73c-.08-.45-.09-.92-.15-1.39a8.88,8.88,0,0,0-.21-1.37,2.34,2.34,0,0,0-1.47-1.62,5.74,5.74,0,0,0-1.79-.39c-.32,0-.64,0-1,0h-13.3a5.89,5.89,0,0,0-2.57.43,2.6,2.6,0,0,0-1.76,2.64c0,.12,0,.23,0,.35q0,15.88,0,31.76a11.24,11.24,0,0,0,.14,1.74,2.77,2.77,0,0,0,2.17,2.46,13.11,13.11,0,0,0,2,.35,16.09,16.09,0,0,0,1.84.06H339.1a11.09,11.09,0,0,0,2-.15,4.48,4.48,0,0,0,3.74-4.43,9.44,9.44,0,0,1,.18-1.91,4,4,0,0,1,1.05-1.89,2.27,2.27,0,0,1,3.52.17,4.37,4.37,0,0,1,.91,2.77c.07,1.8.18,3.61.26,5.42,0,.69.05,1.39,0,2.09a10.16,10.16,0,0,1-.15,1.22,1.55,1.55,0,0,1-1.43,1.41c-.44.06-.87.13-1.3.16s-.88,0-1.32,0Z"/><path class="cls-5" d="M443.69,43.38a1.66,1.66,0,0,1-1,.57l-2.88.7c-.65.16-1.29.35-1.94.53a3.72,3.72,0,0,0-1.94,1.28,14.68,14.68,0,0,0-1.26,1.78c-.62,1.09-1.21,2.19-1.74,3.32q-5.28,11.13-10.53,22.28c-.23.47-.41,1-.63,1.44a12.49,12.49,0,0,1-.7,1.3,2.25,2.25,0,0,1-.69.65,1.14,1.14,0,0,1-1.39,0,4.08,4.08,0,0,1-.82-.89,13.41,13.41,0,0,1-.84-1.53Q411.26,62.37,405.21,50a9.66,9.66,0,0,0-3.71-4.19,5.9,5.9,0,0,0-3.22-1,5,5,0,0,1-1.38-.18,4.38,4.38,0,0,1-1.19-.53,1.83,1.83,0,0,1-.77-2.29,1.62,1.62,0,0,1,1.22-1.15,5.65,5.65,0,0,1,1.29-.18,25.52,25.52,0,0,1,4.78.43,18.55,18.55,0,0,0,4.87.4c1.13-.1,2.26-.26,3.38-.41a26.67,26.67,0,0,1,4.17-.42,13.69,13.69,0,0,1,1.57.16,2.64,2.64,0,0,1,.66.2,1.67,1.67,0,0,1,1,1.6A1.53,1.53,0,0,1,417,44a11.77,11.77,0,0,1-1.72.62c-.47.15-1,.24-1.44.38a4,4,0,0,0-.8.34,1.21,1.21,0,0,0-.6,1.49A12.22,12.22,0,0,0,413,48.3c.65,1.41,1.31,2.8,2,4.19q2.57,5.41,5.14,10.81c.15.31.31.63.48.93a1.38,1.38,0,0,0,.67.68.8.8,0,0,0,.7-.44,6.19,6.19,0,0,0,.52-.9q3.44-7.23,6.84-14.45a5.38,5.38,0,0,0,.55-2.36A1.76,1.76,0,0,0,428.75,45c-.32-.14-.66-.22-1-.33-.56-.17-1.11-.34-1.66-.54a1.45,1.45,0,0,1-1-1.32,2,2,0,0,1,0-.34c0-1.63.55-1.9,1.7-2.1a7.41,7.41,0,0,1,3,.16,18.93,18.93,0,0,0,5.9.45c1-.07,2-.27,3-.42.69-.1,1.38-.22,2.07-.31a5.13,5.13,0,0,1,1,0,2.15,2.15,0,0,1,2.1,1.31,2.84,2.84,0,0,0,.25-.23,2.73,2.73,0,0,1,2.39-.84,16.75,16.75,0,0,1,2.23.38A10.33,10.33,0,0,0,453,41c.92-.15,1.85-.23,2.78-.34a1.88,1.88,0,0,1,2.33,1.77,9.33,9.33,0,0,1,.1,2.36c-.05.67-.09,1.34-.09,2q0,10.23,0,20.47a19,19,0,0,0,.15,2,2.58,2.58,0,0,0,1.68,2.17,8.82,8.82,0,0,0,1.67.47c.49.09,1,.21,1.44.34a1.54,1.54,0,0,1,1.2,1.53,1.61,1.61,0,0,1-1.46,2,9,9,0,0,1-2.88.09l-5.13-.51a13.86,13.86,0,0,0-3.22.14c-1.19.17-2.36.39-3.55.55a12.93,12.93,0,0,1-1.65.08,2.9,2.9,0,0,1-1.84-.72,2.1,2.1,0,0,1-.76-1.52,1.5,1.5,0,0,1,1-1.65,13,13,0,0,1,1.86-.48,7,7,0,0,0,1.66-.52,2.2,2.2,0,0,0,1.28-1.56,14.49,14.49,0,0,0,.28-1.73c.06-.69.06-1.39.06-2.09V49.26c0-.46,0-.93-.05-1.39a2.57,2.57,0,0,0-1.73-2.41c-.66-.23-1.33-.41-2-.61-.23-.06-.46-.1-.68-.17A2.39,2.39,0,0,1,443.69,43.38Z"/><path class="cls-5" d="M234.75,59.76H223.12c-.41,0-.82,0-1.22,0a4,4,0,0,1-.77-.15,1.89,1.89,0,0,1-1.37-2.38,1.45,1.45,0,0,1,.87-1.13,6.19,6.19,0,0,1,1.34-.37,7.08,7.08,0,0,1,1.13,0h15.4a7.07,7.07,0,0,0,1.13-.06c.9-.14,1.23-.49,1.27-1.38a10.29,10.29,0,0,0-.05-1.84,10.82,10.82,0,0,0-8.53-9,18,18,0,0,0-4.26-.31,9.43,9.43,0,0,0-3.53.93,17.45,17.45,0,0,0-5.71,4.26,13.12,13.12,0,0,0-2.95,6.15,20.74,20.74,0,0,0-.39,4.08,10.85,10.85,0,0,0,1.64,5.91,16.63,16.63,0,0,0,11,7.82,15.19,15.19,0,0,0,7.27-.39,27.68,27.68,0,0,0,5.09-2.06c.72-.37,1.47-.69,2.21-1a1.85,1.85,0,0,1,1.37,0,1.67,1.67,0,0,1,.86,2.5,4.09,4.09,0,0,1-.8.91,17.2,17.2,0,0,1-1.93,1.36A28.41,28.41,0,0,1,233,77.14a23.72,23.72,0,0,1-12-.61,17.48,17.48,0,0,1-4.1-1.93,20.88,20.88,0,0,1-8.77-10.89,19,19,0,0,1-.91-8.36A14.9,14.9,0,0,1,211,46.87a23.34,23.34,0,0,1,13-7.6,29.8,29.8,0,0,1,12.9.66A16.92,16.92,0,0,1,243,43a17.8,17.8,0,0,1,6.51,11,16.93,16.93,0,0,1,.3,3.48,6.15,6.15,0,0,1-.15,1.12,1.27,1.27,0,0,1-1,1,7,7,0,0,1-1.2.19q-1,.06-2.1.06Z"/><path class="cls-3" d="M487.78,77.23a21.64,21.64,0,0,1-17.08-8,16.19,16.19,0,0,1-3.89-10.17A18.67,18.67,0,0,1,469.09,49a19.1,19.1,0,0,1,7.33-7.56,20.73,20.73,0,0,1,6.15-2.19,31.42,31.42,0,0,1,5.73-.54A21.24,21.24,0,0,1,503.82,45a19.31,19.31,0,0,1,4.55,6.56,16.35,16.35,0,0,1,1.21,5.61,19.27,19.27,0,0,1-1.32,8.13,18,18,0,0,1-7.13,8.39,21.58,21.58,0,0,1-7.61,3A29.86,29.86,0,0,1,487.78,77.23Zm.82-4.56c.32,0,.64,0,1,0A11.27,11.27,0,0,0,498,68.4,14.41,14.41,0,0,0,500.79,63a19.63,19.63,0,0,0,.55-7.36,14.66,14.66,0,0,0-1.63-5.49,12.65,12.65,0,0,0-7.3-6.28,14.08,14.08,0,0,0-6.48-.46,10.57,10.57,0,0,0-7.15,4.12,13.21,13.21,0,0,0-1.46,2.38,16.55,16.55,0,0,0-1.54,6.33,22.88,22.88,0,0,0,.17,4.53,15.64,15.64,0,0,0,1.77,5.54,12.28,12.28,0,0,0,6.18,5.56A11.46,11.46,0,0,0,488.6,72.67Z"/><path class="cls-5" d="M522.93,77.22a18.6,18.6,0,0,1-8.83-2.13,8,8,0,0,1-1.82-1.19,2.64,2.64,0,0,1-1-2.06c0-1.36-.18-2.73-.26-4.1-.05-.75-.08-1.51-.1-2.27a2.69,2.69,0,0,1,.06-.69,2,2,0,0,1,2.3-1.69,1.65,1.65,0,0,1,1.38.82,9,9,0,0,1,.62,1.15c.36.82.68,1.67,1.05,2.49a20.21,20.21,0,0,0,1.08,2.19,6.81,6.81,0,0,0,10.37,1.32,5.91,5.91,0,0,0,1.69-5.69,5,5,0,0,0-1.85-3,17.59,17.59,0,0,0-2.17-1.47c-1.29-.73-2.62-1.38-3.94-2.07s-2.43-1.25-3.61-2a16,16,0,0,1-2.33-1.68,9.33,9.33,0,0,1-3.22-8.3,7.18,7.18,0,0,1,2.16-4.39,13,13,0,0,1,5-3.14,15.67,15.67,0,0,1,6.37-.82A22.83,22.83,0,0,1,533,40.1a17.1,17.1,0,0,1,1.89.89,5.25,5.25,0,0,1,1,.77,2,2,0,0,1,.61,1.4c0,.93.18,1.86.25,2.79.06.66.1,1.33.11,2a2.82,2.82,0,0,1-.6,1.71,1.68,1.68,0,0,1-1.6.7,1.87,1.87,0,0,1-1.74-1.24,12,12,0,0,1-.47-1.31,5.45,5.45,0,0,0-2.65-3.43,8.45,8.45,0,0,0-4.63-1.32,6.17,6.17,0,0,0-4.42,2,2.49,2.49,0,0,0-.38,3.2,4.37,4.37,0,0,0,1.25,1.45,19.77,19.77,0,0,0,1.81,1.22q2.19,1.27,4.41,2.48a38.82,38.82,0,0,1,4.63,2.81,23,23,0,0,1,2.09,1.72,10.73,10.73,0,0,1,3.4,6.35,9.5,9.5,0,0,1-3.36,9.24,14.41,14.41,0,0,1-5.29,2.79A21.86,21.86,0,0,1,522.93,77.22Z"/><path class="cls-6" d="M290.78,59.56q.08,5.16.14,10.32a72.79,72.79,0,0,1-.34,8,29.41,29.41,0,0,1-1.36,6.75,20.56,20.56,0,0,1-5,7.82,10.88,10.88,0,0,1-5.65,2.94,17.64,17.64,0,0,1-7.72-.12,8.37,8.37,0,0,1-2.7-1.19,4.51,4.51,0,0,1-.69-.53,1,1,0,0,1-.28-1.41,1.28,1.28,0,0,1,1.5-.76,6.44,6.44,0,0,1,1.07.37,8.09,8.09,0,0,0,6.54,0,13,13,0,0,0,1.91-1A8.42,8.42,0,0,0,282,85.25a30.93,30.93,0,0,0,.54-3.45,55.8,55.8,0,0,0,.26-6.2q0-12.94-.08-25.89c0-.38,0-.76,0-1.14a3.08,3.08,0,0,0-1.95-2.86,6.93,6.93,0,0,0-1.84-.53,7.82,7.82,0,0,1-2-.53,4.19,4.19,0,0,1-1.11-.68A1.72,1.72,0,0,1,276.4,41a4,4,0,0,1,1.37-.19c.85,0,1.69.12,2.53.2l3.21.35a10.49,10.49,0,0,0,3.82-.32c.33-.08.68-.16,1-.21a1.69,1.69,0,0,1,2.16,1.49,6,6,0,0,1,.09,1c0,1,0,2,0,3q.09,6.61.17,13.21Z"/><path class="cls-3" d="M389.38,58.34c0,3.27,0,6.54,0,9.8,0,.59.05,1.17.1,1.75a2.35,2.35,0,0,0,1.63,2.17c.6.22,1.22.37,1.83.58a6.25,6.25,0,0,1,1,.41,1.35,1.35,0,0,1,.63,1.73,1.31,1.31,0,0,1-.82.85,3.19,3.19,0,0,1-1.3.15l-3.66-.22a44,44,0,0,0-7.78.09c-.9.1-1.78.29-2.68.42a8.21,8.21,0,0,1-1.21.09,2.61,2.61,0,0,1-1.91-.93,1.55,1.55,0,0,1,.08-2.27,2.19,2.19,0,0,1,1.46-.71c.38,0,.75-.06,1.13-.11a4.29,4.29,0,0,0,2.05-.91,2.86,2.86,0,0,0,1.12-1.91,10.85,10.85,0,0,0,.1-1.4c0-3,0-6.06,0-9.1,0-2.8.1-5.59.23-8.39a6.69,6.69,0,0,0-.16-2.09A3,3,0,0,0,378.67,46a3.87,3.87,0,0,0-2.37.35A13.26,13.26,0,0,0,373.81,48c-.74.57-1.46,1.17-2.23,1.69a12.48,12.48,0,0,1-1.68.94,1.27,1.27,0,0,1-1.58-.31,1.53,1.53,0,0,1-.47-1.67,4.13,4.13,0,0,1,.52-1,11.45,11.45,0,0,1,1.18-1.41,27.69,27.69,0,0,1,4.89-3.94,14.49,14.49,0,0,1,5.06-2.08,9.77,9.77,0,0,1,4.17,0,6.86,6.86,0,0,1,5.45,5.89,27.54,27.54,0,0,1,.33,4.8c0,2.48-.07,5-.1,7.43Z"/><path class="cls-5" d="M257.8,57.71c0-2.48.05-5,.05-7.43a8.05,8.05,0,0,0-.17-1.83A3.9,3.9,0,0,0,255,45.39c-.5-.18-1-.25-1.53-.39s-1.12-.31-1.67-.48a1.2,1.2,0,0,1-.82-.84,2.57,2.57,0,0,1,.15-2,1.53,1.53,0,0,1,1.56-.9,15.09,15.09,0,0,1,1.64.25c.86.16,1.72.33,2.57.52a6.73,6.73,0,0,0,2.86,0c1.26-.25,2.52-.48,3.77-.74a1.76,1.76,0,0,1,1.61.47,1.13,1.13,0,0,1,.42.84c0,.11,0,.23,0,.35.06,2.21.14,4.43.17,6.64.06,4.61.09,9.22.16,13.83,0,1.31.11,2.62.19,3.92a5,5,0,0,0,4,4.65,7.69,7.69,0,0,0,5.53-.53c.44-.22.86-.48,1.3-.71s1.08-.57,1.64-.81a2.24,2.24,0,0,1,.85-.19,1.17,1.17,0,0,1,1.19,1.59,2.44,2.44,0,0,1-.45.84,6.82,6.82,0,0,1-1,1,19.07,19.07,0,0,1-8.15,3.82,10.71,10.71,0,0,1-6.74-.77,17.27,17.27,0,0,1-2.52-1.41,7.74,7.74,0,0,1-3.44-5.63,67.26,67.26,0,0,1-.47-7.5c0-1.2,0-2.39,0-3.59Z"/><path class="cls-3" d="M366.22,56.71c-.07,3.76-.15,7.52-.22,11.28,0,.56,0,1.11,0,1.66a1.47,1.47,0,0,0,.65,1.18,7.84,7.84,0,0,0,2.93,1.31,13.56,13.56,0,0,1,1.42.4,1.67,1.67,0,0,1,1.06,1.2A1.57,1.57,0,0,1,371,75.8a5.24,5.24,0,0,1-1.12.18,16.69,16.69,0,0,1-3.74-.24,25.56,25.56,0,0,0-7.66-.17c-1.22.15-2.44.25-3.66.33a6.79,6.79,0,0,1-1.56-.1A1.88,1.88,0,0,1,352,72.9a1.64,1.64,0,0,1,1.22-.75c.48-.09,1-.12,1.47-.19s.69-.11,1-.17a1.32,1.32,0,0,0,.74-.44A4.85,4.85,0,0,0,358,67.87c0-1,.07-1.92.07-2.89q0-7.77,0-15.56a13.21,13.21,0,0,0-.1-1.66,2.81,2.81,0,0,0-2-2.58c-.63-.2-1.29-.33-1.94-.51A6.66,6.66,0,0,1,353,44.3a1.72,1.72,0,0,1-.44-2.9,3.15,3.15,0,0,1,2.65-.86,12.7,12.7,0,0,1,1.8.35,8.75,8.75,0,0,0,3.81.15c.89-.15,1.78-.26,2.68-.38a6.12,6.12,0,0,1,1,0,1.34,1.34,0,0,1,1.34.93,4.15,4.15,0,0,1,.27,1.09,21.67,21.67,0,0,1,.17,2.27c0,3.93.06,7.87.09,11.8Z"/><path class="cls-7" d="M37.35,109a10.57,10.57,0,1,1-10.52,10.71A10.52,10.52,0,0,1,37.35,109Z"/><path class="cls-5" d="M454.25,34a5.59,5.59,0,0,1-4.79-2.39,5,5,0,0,1,.38-6.43,5.32,5.32,0,0,1,5.7-1.67,5.53,5.53,0,0,1,4.06,4.29,4.55,4.55,0,0,1-1.71,4.9A5.67,5.67,0,0,1,454.25,34Z"/></g></g></svg>